<svg width="35" height="35" viewBox="0 0 35 35" fill="none" xmlns="http://www.w3.org/2000/svg">
<path d="M35 17.5C35 27.165 27.165 35 17.5 35C7.83502 35 0 27.165 0 17.5C0 7.83502 7.83502 0 17.5 0C27.165 0 35 7.83502 35 17.5Z" fill="#EFEFEF"/>
<path d="M24.5 12.6C24.5 16.466 21.366 19.6 17.5 19.6C13.634 19.6 10.5 16.466 10.5 12.6C10.5 8.73401 13.634 5.6 17.5 5.6C21.366 5.6 24.5 8.73401 24.5 12.6Z" fill="#0075FF"/>
<path d="M3.43993 27.9213C6.62884 24.571 11.7393 22.4 17.4999 22.4C23.2605 22.4 28.371 24.5711 31.56 27.9214C28.371 32.2166 23.2606 35 17.5 35C11.7394 35 6.62884 32.2166 3.43993 27.9213Z" fill="#0075FF"/>
</svg>
